<svg xmlns="http://www.w3.org/2000/svg" xmlns:xlink="http://www.w3.org/1999/xlink" width="500" zoomAndPan="magnify" viewBox="0 0 375 374.999991" height="500" preserveAspectRatio="xMidYMid meet" version="1.0"><defs><g/><clipPath id="dbcead70bc"><path d="M 71 231.835938 L 307 231.835938 L 307 305.335938 L 71 305.335938 Z M 71 231.835938 " clip-rule="nonzero"/></clipPath><clipPath id="76be3ffe45"><path d="M 70 69.386719 L 306.941406 69.386719 L 306.941406 142.886719 L 70 142.886719 Z M 70 69.386719 " clip-rule="nonzero"/></clipPath></defs><g clip-path="url(#dbcead70bc)"><path fill="#d0b77a" d="M 101.316406 107.886719 C 102.640625 106.730469 103.980469 105.589844 105.285156 104.40625 C 105.539062 104.175781 105.675781 103.796875 105.8125 103.464844 C 108.015625 98.097656 110.207031 92.722656 113.511719 87.894531 C 116.152344 84.03125 119.480469 80.953125 123.675781 78.878906 C 124.484375 78.480469 125.691406 78.097656 126.375 78.421875 C 127.46875 78.9375 126.9375 80.222656 126.757812 81.203125 C 126.203125 84.191406 124.472656 86.589844 122.800781 89.015625 C 122.550781 89.375 122.289062 89.730469 122.085938 90.191406 C 142.398438 76.667969 164.667969 69.601562 189.101562 69.621094 C 213.496094 69.640625 235.738281 76.695312 256.089844 90.152344 C 255.5625 89.402344 255.023438 88.667969 254.515625 87.910156 C 253.019531 85.652344 251.542969 83.367188 251.242188 80.597656 C 251.164062 79.867188 251.289062 78.820312 251.757812 78.410156 C 252.132812 78.082031 253.25 78.3125 253.882812 78.609375 C 258.667969 80.875 262.347656 84.382812 265.207031 88.820312 C 268.148438 93.386719 270.164062 98.390625 272.261719 103.355469 C 272.476562 103.867188 272.753906 104.378906 273.121094 104.789062 C 274.210938 106.003906 275.359375 107.167969 276.648438 108.289062 C 276.5625 108.027344 276.496094 107.757812 276.386719 107.503906 C 274.320312 102.742188 273.285156 97.785156 273.710938 92.582031 C 273.757812 92.046875 274.039062 91.246094 274.421875 91.09375 C 274.808594 90.941406 275.578125 91.316406 275.960938 91.6875 C 280.867188 96.375 283.726562 102.230469 285.515625 108.675781 C 286.671875 112.832031 287.175781 117.082031 287.375 121.382812 C 287.402344 122.039062 287.636719 122.757812 287.992188 123.304688 C 296.808594 136.992188 302.601562 151.859375 305.335938 167.902344 C 306.886719 177.003906 307.285156 186.171875 306.679688 195.394531 C 305.335938 215.902344 298.964844 234.726562 287.875 252.003906 C 287.371094 252.785156 287.335938 253.945312 287.285156 254.9375 C 287.027344 259.90625 286.164062 264.75 284.519531 269.453125 C 282.699219 274.660156 280.035156 279.351562 276.011719 283.183594 C 275.601562 283.574219 274.859375 283.90625 274.367188 283.808594 C 274.054688 283.75 273.753906 282.851562 273.707031 282.304688 C 273.285156 277.269531 274.292969 272.472656 276.203125 267.828125 C 276.28125 267.640625 276.347656 267.449219 276.414062 267.257812 C 276.421875 267.222656 276.398438 267.183594 276.300781 266.734375 C 274.816406 268.554688 273.101562 269.992188 272.242188 271.828125 C 269.835938 276.964844 267.835938 282.296875 264.597656 287.023438 C 261.957031 290.878906 258.632812 293.96875 254.4375 296.042969 C 253.628906 296.441406 252.425781 296.839844 251.738281 296.519531 C 250.632812 296.011719 251.167969 294.730469 251.335938 293.742188 C 251.765625 291.210938 253.152344 289.125 254.511719 287.035156 C 254.96875 286.335938 255.46875 285.664062 255.898438 284.910156 C 235.667969 298.460938 213.429688 305.5 189.085938 305.523438 C 164.773438 305.546875 142.554688 298.542969 122.253906 285.089844 C 122.675781 285.703125 123.109375 286.316406 123.523438 286.9375 C 124.992188 289.15625 126.480469 291.390625 126.820312 294.109375 C 126.917969 294.894531 126.890625 295.953125 126.441406 296.488281 C 125.75 297.308594 124.761719 296.617188 123.980469 296.234375 C 119.3125 293.933594 115.519531 290.578125 112.949219 286.074219 C 110.746094 282.21875 108.695312 278.242188 107.011719 274.136719 C 105.839844 271.277344 103.882812 269.234375 101.84375 267.164062 C 102.484375 269.378906 103.351562 271.554688 103.707031 273.816406 C 104.160156 276.699219 104.230469 279.648438 104.378906 282.570312 C 104.402344 283.003906 104.042969 283.753906 103.726562 283.835938 C 103.296875 283.945312 102.609375 283.691406 102.253906 283.359375 C 97.296875 278.664062 94.242188 272.824219 92.652344 266.28125 C 91.730469 262.492188 91.449219 258.554688 90.808594 254.695312 C 90.632812 253.640625 90.425781 252.492188 89.871094 251.617188 C 80.496094 236.921875 74.457031 220.992188 72.171875 203.699219 C 68.335938 174.710938 74.394531 147.898438 90.058594 123.21875 C 90.621094 122.332031 90.746094 121.070312 90.808594 119.96875 C 91.089844 114.957031 91.957031 110.074219 93.628906 105.335938 C 95.449219 100.175781 98.121094 95.535156 102.105469 91.730469 C 102.496094 91.355469 103.234375 90.964844 103.644531 91.09375 C 104.015625 91.214844 104.34375 92.019531 104.386719 92.550781 C 104.816406 97.75 103.800781 102.710938 101.730469 107.472656 C 101.636719 107.6875 101.554688 107.910156 101.464844 108.128906 C 101.414062 108.042969 101.363281 107.964844 101.316406 107.886719 Z M 95.125 119.328125 C 95.175781 119.386719 95.234375 119.445312 95.285156 119.503906 C 95.589844 119.335938 95.882812 119.132812 96.203125 119 C 98.90625 117.867188 101.550781 116.539062 104.339844 115.675781 C 108.664062 114.332031 113.0625 114.496094 117.351562 116.03125 C 117.808594 116.195312 118.339844 116.726562 118.421875 117.160156 C 118.484375 117.496094 117.972656 118.097656 117.574219 118.332031 C 115.414062 119.578125 113.242188 120.796875 111.019531 121.929688 C 104.726562 125.136719 97.855469 126.246094 90.980469 127.289062 C 90.039062 127.433594 89.535156 127.832031 89.09375 128.585938 C 79.007812 145.789062 73.664062 164.382812 73.011719 184.292969 C 72.617188 196.472656 74.226562 208.429688 77.660156 220.128906 C 80.355469 229.3125 84.121094 238.035156 88.984375 246.273438 C 89.300781 246.8125 89.917969 247.402344 90.488281 247.519531 C 93.769531 248.195312 97.082031 248.6875 100.367188 249.320312 C 106.691406 250.535156 112.3125 253.441406 117.773438 256.695312 C 118.839844 257.332031 118.75 258.339844 117.601562 258.804688 C 116.699219 259.171875 115.742188 259.4375 114.785156 259.632812 C 108.042969 260.980469 101.917969 259.210938 96.113281 255.871094 C 95.742188 255.65625 95.371094 255.4375 95.003906 255.222656 C 96.347656 257.324219 97.84375 259.253906 99.351562 261.171875 C 99.492188 261.347656 99.726562 261.472656 99.941406 261.566406 C 104.476562 263.484375 109.230469 264.609375 114.042969 265.585938 C 119.269531 266.648438 123.914062 269.011719 127.957031 272.488281 C 128.464844 272.921875 128.925781 273.835938 128.816406 274.421875 C 128.734375 274.894531 127.78125 275.480469 127.175781 275.535156 C 125.238281 275.710938 123.253906 275.867188 121.335938 275.652344 C 116.867188 275.148438 112.867188 273.289062 109.089844 270.914062 C 108.792969 270.730469 108.476562 270.574219 108.171875 270.40625 C 108.117188 270.496094 108.066406 270.582031 108.015625 270.671875 C 110.492188 272.859375 112.964844 275.058594 115.460938 277.222656 C 115.710938 277.441406 116.117188 277.535156 116.464844 277.582031 C 119.585938 277.984375 122.707031 278.339844 125.824219 278.753906 C 132.011719 279.585938 137.367188 282.464844 142.582031 285.660156 C 142.941406 285.882812 143.253906 286.53125 143.214844 286.941406 C 143.183594 287.238281 142.554688 287.628906 142.140625 287.703125 C 139.199219 288.246094 136.242188 288.625 133.269531 287.84375 C 132.558594 287.65625 131.839844 287.492188 131.136719 287.285156 C 130.445312 287.085938 129.761719 286.851562 129.078125 286.636719 C 141.136719 294.167969 154.175781 299.082031 168.097656 301.652344 C 182.074219 304.234375 196.054688 304.242188 210.027344 301.617188 C 223.191406 299.144531 244.6875 290.863281 248.921875 286.640625 C 248.554688 286.753906 248.246094 286.835938 247.941406 286.949219 C 244.042969 288.433594 240.050781 288.613281 236.011719 287.714844 C 235.5625 287.617188 234.9375 287.226562 234.863281 286.875 C 234.789062 286.511719 235.269531 286.015625 235.542969 285.605469 C 235.652344 285.449219 235.867188 285.359375 236.050781 285.265625 C 238.996094 283.757812 241.875 282.105469 244.902344 280.789062 C 250.074219 278.539062 255.667969 278.21875 261.1875 277.585938 C 261.792969 277.519531 262.46875 277.269531 262.933594 276.890625 C 264.613281 275.519531 266.222656 274.070312 267.84375 272.628906 C 268.574219 271.980469 269.273438 271.289062 269.984375 270.617188 C 269.589844 270.574219 269.351562 270.703125 269.117188 270.84375 C 266.28125 272.570312 263.371094 274.128906 260.128906 274.980469 C 257.058594 275.785156 253.960938 276.3125 250.8125 275.535156 C 250.214844 275.390625 249.359375 274.898438 249.269531 274.4375 C 249.160156 273.878906 249.707031 273.171875 250.027344 272.558594 C 250.152344 272.324219 250.449219 272.179688 250.667969 272 C 254.765625 268.726562 259.371094 266.539062 264.511719 265.472656 C 268.828125 264.578125 273.1875 263.808594 277.199219 261.835938 C 277.628906 261.625 278.253906 261.613281 278.519531 261.289062 C 280.066406 259.417969 281.53125 257.488281 283.019531 255.574219 C 282.714844 255.472656 282.566406 255.515625 282.4375 255.59375 C 279.460938 257.449219 276.265625 258.738281 272.839844 259.515625 C 268.746094 260.449219 264.722656 260.296875 260.769531 258.902344 C 260.308594 258.738281 259.769531 258.226562 259.675781 257.792969 C 259.601562 257.464844 260.097656 256.84375 260.496094 256.609375 C 262.648438 255.359375 264.824219 254.136719 267.042969 253.007812 C 273.335938 249.800781 280.203125 248.675781 287.082031 247.648438 C 288.144531 247.488281 288.652344 246.980469 289.121094 246.171875 C 298.445312 230.128906 303.679688 212.824219 304.828125 194.324219 C 305.484375 183.785156 304.648438 173.328125 302.386719 163 C 299.703125 150.761719 295.207031 139.234375 288.789062 128.46875 C 288.515625 128.003906 287.972656 127.496094 287.476562 127.394531 C 284.152344 126.726562 280.796875 126.21875 277.472656 125.554688 C 271.25 124.316406 265.699219 121.445312 260.3125 118.226562 C 259.25 117.589844 259.347656 116.582031 260.496094 116.117188 C 261.398438 115.753906 262.359375 115.488281 263.3125 115.292969 C 269.824219 113.972656 275.78125 115.625 281.457031 118.742188 C 281.785156 118.925781 282.121094 119.09375 282.457031 119.269531 C 282.527344 119.191406 282.59375 119.113281 282.664062 119.03125 C 281.21875 117.21875 279.785156 115.40625 278.332031 113.605469 C 278.214844 113.460938 277.984375 113.40625 277.804688 113.320312 C 274.191406 111.632812 270.378906 110.582031 266.464844 109.867188 C 261.414062 108.949219 256.671875 107.289062 252.472656 104.261719 C 251.542969 103.59375 250.613281 102.914062 249.789062 102.125 C 248.609375 100.992188 248.9375 99.863281 250.535156 99.441406 C 251.28125 99.242188 252.058594 99.117188 252.828125 99.078125 C 257.761719 98.828125 262.265625 100.28125 266.546875 102.589844 C 267.421875 103.0625 268.28125 103.558594 269.152344 104.042969 C 269.214844 103.953125 269.277344 103.863281 269.335938 103.777344 C 266.972656 101.71875 264.609375 99.652344 262.226562 97.613281 C 262.003906 97.425781 261.628906 97.371094 261.316406 97.335938 C 259.9375 97.179688 258.554688 97.046875 257.171875 96.917969 C 250.449219 96.277344 244.097656 94.46875 238.289062 90.945312 C 237.308594 90.351562 236.289062 89.824219 235.359375 89.164062 C 235.054688 88.953125 234.820312 88.410156 234.851562 88.042969 C 234.875 87.765625 235.347656 87.332031 235.65625 87.300781 C 237.878906 87.058594 240.117188 86.714844 242.339844 86.777344 C 244.171875 86.828125 245.992188 87.402344 247.816406 87.738281 C 229.855469 77.1875 210.488281 71.675781 189.628906 71.570312 C 168.15625 71.464844 148.222656 77.007812 129.765625 87.929688 C 130.175781 87.929688 130.5625 87.839844 130.9375 87.710938 C 134.632812 86.421875 138.394531 86.40625 142.175781 87.230469 C 142.585938 87.324219 143.148438 87.6875 143.230469 88.027344 C 143.3125 88.371094 142.917969 88.855469 142.667969 89.238281 C 142.542969 89.425781 142.273438 89.515625 142.0625 89.648438 C 135.492188 93.820312 128.382812 96.464844 120.582031 96.890625 C 117.320312 97.070312 114.605469 97.984375 112.386719 100.476562 C 111.160156 101.855469 109.640625 102.976562 108.25 104.214844 C 108.675781 104.261719 108.941406 104.109375 109.199219 103.949219 C 112.976562 101.574219 116.992188 99.742188 121.460938 99.25 C 123.417969 99.035156 125.457031 99.171875 127.417969 99.4375 C 129.191406 99.679688 129.484375 100.949219 128.230469 102.214844 C 127.976562 102.476562 127.6875 102.714844 127.402344 102.941406 C 123.304688 106.214844 118.695312 108.394531 113.558594 109.457031 C 109.238281 110.351562 104.878906 111.128906 100.871094 113.101562 C 100.441406 113.316406 99.847656 113.371094 99.578125 113.699219 C 98.054688 115.539062 96.601562 117.445312 95.125 119.328125 Z M 114.84375 117.453125 C 107.199219 115.003906 95.136719 120.273438 92.101562 125.078125 C 100.113281 123.929688 107.859375 122.097656 114.84375 117.453125 Z M 286.054688 125.078125 C 282.476562 119.484375 269.296875 115.09375 263.324219 117.503906 C 270.234375 122.09375 277.984375 123.941406 286.054688 125.078125 Z M 114.898438 257.511719 C 107.875 252.8125 100.109375 250.996094 92.050781 249.839844 C 95.164062 254.5 106.609375 259.828125 114.898438 257.511719 Z M 263.292969 257.523438 C 271.597656 259.949219 283.503906 254.144531 285.9375 249.878906 C 278.597656 250.382812 267.917969 253.964844 263.292969 257.523438 Z M 102.429688 94.449219 C 96.144531 101.285156 93.792969 109.648438 93.082031 118.683594 C 95.652344 114.351562 98.191406 109.992188 100.347656 105.449219 C 101.964844 102.039062 102.414062 98.265625 102.429688 94.449219 Z M 284.929688 118.855469 C 285.175781 110.59375 279.585938 96.503906 275.503906 94.46875 C 275.734375 98.652344 276.308594 102.761719 278.175781 106.492188 C 280.203125 110.539062 282.5625 114.417969 284.769531 118.375 C 284.851562 118.515625 284.878906 118.691406 284.929688 118.855469 Z M 275.613281 280.578125 C 280.46875 276.300781 286.097656 261.714844 285.011719 256.394531 C 279.609375 262.960938 275.105469 274.46875 275.613281 280.578125 Z M 93.019531 256.472656 C 93.839844 265.40625 96.183594 273.71875 102.472656 280.746094 C 102.6875 271.128906 97.710938 263.851562 93.019531 256.472656 Z M 268.511719 100.152344 C 265.296875 92.292969 261.652344 84.742188 253.34375 80.832031 C 256.363281 88.839844 262.292969 94.59375 268.511719 100.152344 Z M 125.03125 80.597656 C 119.007812 82.871094 110.066406 94.40625 109.683594 100.039062 C 109.757812 100.007812 109.84375 99.992188 109.902344 99.941406 C 110.398438 99.519531 110.902344 99.097656 111.390625 98.664062 C 116.074219 94.464844 120.1875 89.78125 123.386719 84.34375 C 124.03125 83.257812 124.417969 82.019531 125.03125 80.597656 Z M 268.410156 274.867188 C 267.367188 275.777344 266.285156 276.648438 265.277344 277.601562 C 261.160156 281.492188 257.484375 285.757812 254.644531 290.6875 C 254.039062 291.746094 253.671875 292.941406 253.199219 294.074219 C 261.570312 290.230469 265.21875 282.773438 268.410156 274.867188 Z M 124.75 294.070312 C 121.695312 286.164062 116.007812 280.347656 109.648438 275.058594 C 112.886719 282.804688 116.542969 290.226562 124.75 294.070312 Z M 126.164062 101.222656 C 119.574219 100.1875 111.265625 104.238281 105.007812 109.394531 C 112.433594 107.605469 120.074219 106.683594 126.164062 101.222656 Z M 273.015625 109.277344 C 266.769531 104.71875 260.386719 100.515625 251.824219 101.125 C 258.019531 106.683594 265.664062 107.605469 273.015625 109.277344 Z M 126.144531 273.679688 C 120.074219 268.25 112.445312 267.304688 104.980469 265.527344 C 111.476562 270.828125 119.773438 274.765625 126.144531 273.679688 Z M 272.984375 265.664062 C 265.625 267.316406 257.996094 268.25 251.828125 273.808594 C 260.382812 274.386719 266.761719 270.210938 272.984375 265.664062 Z M 138.929688 88.828125 C 131.871094 88.347656 126.023438 91.746094 120.050781 94.738281 C 126.863281 94.46875 133.203125 92.652344 138.929688 88.828125 Z M 238.996094 88.84375 C 242.929688 91.953125 254.152344 95.40625 258.113281 94.757812 C 257.75 94.527344 257.46875 94.292969 257.140625 94.15625 C 253.472656 92.59375 249.84375 90.929688 246.109375 89.539062 C 243.914062 88.722656 241.554688 88.257812 238.996094 88.84375 Z M 120.0625 280.167969 C 124.765625 282.75 129.539062 285.132812 134.863281 286.070312 C 137.609375 286.550781 137.777344 286.453125 138.988281 285.914062 C 133.203125 282.261719 126.863281 280.46875 120.0625 280.167969 Z M 239.175781 286.105469 C 246.234375 286.550781 252.089844 283.1875 258.054688 280.179688 C 251.230469 280.457031 244.894531 282.277344 239.175781 286.105469 Z M 239.175781 286.105469 " fill-opacity="1" fill-rule="nonzero"/></g><g clip-path="url(#76be3ffe45)"><path fill="#d0b77a" d="M 100.660156 267.105469 C 101.984375 268.261719 103.324219 269.402344 104.625 270.582031 C 104.878906 270.816406 105.015625 271.191406 105.152344 271.523438 C 107.359375 276.894531 109.550781 282.269531 112.851562 287.097656 C 115.492188 290.957031 118.824219 294.035156 123.019531 296.109375 C 123.824219 296.511719 125.03125 296.894531 125.714844 296.570312 C 126.808594 296.054688 126.277344 294.769531 126.101562 293.785156 C 125.546875 290.796875 123.816406 288.398438 122.140625 285.976562 C 121.890625 285.613281 121.632812 285.257812 121.429688 284.800781 C 141.742188 298.324219 164.011719 305.390625 188.441406 305.371094 C 212.839844 305.351562 235.078125 298.296875 255.429688 284.839844 C 254.90625 285.585938 254.367188 286.324219 253.859375 287.082031 C 252.359375 289.335938 250.882812 291.621094 250.585938 294.390625 C 250.507812 295.125 250.632812 296.167969 251.101562 296.578125 C 251.476562 296.90625 252.59375 296.679688 253.226562 296.378906 C 258.011719 294.113281 261.6875 290.605469 264.550781 286.171875 C 267.492188 281.605469 269.507812 276.601562 271.605469 271.636719 C 271.820312 271.125 272.097656 270.609375 272.460938 270.199219 C 273.550781 268.984375 274.699219 267.824219 275.988281 266.699219 C 275.90625 266.960938 275.835938 267.230469 275.730469 267.484375 C 273.664062 272.25 272.628906 277.203125 273.054688 282.40625 C 273.101562 282.945312 273.382812 283.746094 273.765625 283.894531 C 274.152344 284.046875 274.917969 283.675781 275.304688 283.304688 C 280.210938 278.617188 283.070312 272.761719 284.859375 266.3125 C 286.015625 262.15625 286.519531 257.90625 286.71875 253.609375 C 286.746094 252.953125 286.980469 252.234375 287.335938 251.683594 C 296.152344 238 301.941406 223.132812 304.675781 207.089844 C 306.230469 197.984375 306.625 188.816406 306.019531 179.597656 C 304.675781 159.089844 298.308594 140.265625 287.21875 122.988281 C 286.714844 122.203125 286.679688 121.046875 286.625 120.050781 C 286.367188 115.082031 285.507812 110.238281 283.863281 105.535156 C 282.039062 100.328125 279.378906 95.640625 275.355469 91.804688 C 274.945312 91.414062 274.203125 91.082031 273.707031 91.179688 C 273.394531 91.242188 273.097656 92.140625 273.050781 92.6875 C 272.628906 97.722656 273.636719 102.519531 275.542969 107.160156 C 275.621094 107.351562 275.691406 107.542969 275.753906 107.734375 C 275.765625 107.765625 275.742188 107.808594 275.640625 108.253906 C 274.15625 106.433594 272.445312 105 271.585938 103.164062 C 269.179688 98.023438 267.179688 92.695312 263.941406 87.96875 C 261.296875 84.113281 257.976562 81.023438 253.78125 78.949219 C 252.96875 78.550781 251.769531 78.152344 251.078125 78.472656 C 249.976562 78.980469 250.507812 80.261719 250.679688 81.246094 C 251.109375 83.78125 252.496094 85.867188 253.855469 87.957031 C 254.3125 88.65625 254.8125 89.324219 255.242188 90.082031 C 235.011719 76.53125 212.773438 69.492188 188.429688 69.464844 C 164.113281 69.441406 141.898438 76.445312 121.59375 89.902344 C 122.019531 89.285156 122.453125 88.675781 122.863281 88.054688 C 124.335938 85.832031 125.824219 83.601562 126.160156 80.878906 C 126.257812 80.09375 126.234375 79.039062 125.785156 78.503906 C 125.09375 77.679688 124.105469 78.375 123.324219 78.757812 C 118.652344 81.058594 114.863281 84.410156 112.289062 88.914062 C 110.085938 92.773438 108.035156 96.75 106.355469 100.851562 C 105.183594 103.714844 103.226562 105.757812 101.1875 107.828125 C 101.828125 105.613281 102.695312 103.433594 103.050781 101.175781 C 103.503906 98.292969 103.570312 95.34375 103.722656 92.421875 C 103.742188 91.988281 103.386719 91.234375 103.070312 91.15625 C 102.640625 91.042969 101.949219 91.296875 101.59375 91.628906 C 96.640625 96.328125 93.585938 102.167969 91.996094 108.710938 C 91.074219 112.5 90.789062 116.4375 90.152344 120.296875 C 89.976562 121.351562 89.769531 122.5 89.210938 123.371094 C 79.839844 138.066406 73.800781 154 71.511719 171.289062 C 67.679688 200.28125 73.734375 227.09375 89.402344 251.773438 C 89.964844 252.660156 90.089844 253.921875 90.152344 255.023438 C 90.433594 260.03125 91.296875 264.917969 92.972656 269.652344 C 94.792969 274.816406 97.460938 279.457031 101.449219 283.261719 C 101.839844 283.636719 102.574219 284.027344 102.984375 283.894531 C 103.359375 283.773438 103.683594 282.972656 103.726562 282.441406 C 104.15625 277.238281 103.140625 272.28125 101.070312 267.519531 C 100.976562 267.304688 100.894531 267.082031 100.808594 266.859375 C 100.757812 266.949219 100.707031 267.027344 100.660156 267.105469 Z M 94.46875 255.660156 C 94.519531 255.601562 94.574219 255.542969 94.628906 255.484375 C 94.933594 255.65625 95.226562 255.855469 95.546875 255.988281 C 98.25 257.121094 100.894531 258.449219 103.683594 259.316406 C 108.007812 260.65625 112.40625 260.496094 116.695312 258.957031 C 117.148438 258.796875 117.683594 258.265625 117.765625 257.828125 C 117.828125 257.492188 117.316406 256.890625 116.914062 256.660156 C 114.757812 255.414062 112.582031 254.195312 110.363281 253.0625 C 104.070312 249.855469 97.199219 248.746094 90.324219 247.699219 C 89.382812 247.558594 88.875 247.15625 88.4375 246.40625 C 78.351562 229.199219 73.007812 210.605469 72.355469 190.699219 C 71.957031 178.519531 73.570312 166.5625 77.003906 154.859375 C 79.699219 145.679688 83.464844 136.957031 88.328125 128.714844 C 88.640625 128.179688 89.261719 127.585938 89.828125 127.46875 C 93.109375 126.796875 96.425781 126.300781 99.710938 125.671875 C 106.035156 124.457031 111.65625 121.550781 117.117188 118.296875 C 118.179688 117.660156 118.09375 116.652344 116.945312 116.1875 C 116.042969 115.820312 115.085938 115.550781 114.128906 115.359375 C 107.386719 114.007812 101.261719 115.78125 95.457031 119.117188 C 95.085938 119.332031 94.714844 119.550781 94.347656 119.765625 C 95.6875 117.667969 97.183594 115.738281 98.695312 113.820312 C 98.835938 113.644531 99.070312 113.515625 99.285156 113.425781 C 103.820312 111.507812 108.574219 110.382812 113.386719 109.402344 C 118.609375 108.34375 123.253906 105.980469 127.296875 102.503906 C 127.804688 102.066406 128.265625 101.15625 128.160156 100.566406 C 128.074219 100.09375 127.125 99.507812 126.515625 99.453125 C 124.578125 99.28125 122.597656 99.121094 120.675781 99.339844 C 116.210938 99.839844 112.210938 101.703125 108.429688 104.074219 C 108.132812 104.261719 107.820312 104.417969 107.511719 104.582031 C 107.460938 104.496094 107.410156 104.40625 107.355469 104.320312 C 109.832031 102.132812 112.308594 99.933594 114.804688 97.769531 C 115.054688 97.550781 115.460938 97.457031 115.808594 97.410156 C 118.925781 97.007812 122.050781 96.652344 125.164062 96.234375 C 131.351562 95.40625 136.710938 92.523438 141.925781 89.328125 C 142.285156 89.105469 142.597656 88.460938 142.554688 88.050781 C 142.527344 87.753906 141.898438 87.363281 141.484375 87.289062 C 138.542969 86.746094 135.585938 86.367188 132.613281 87.148438 C 131.898438 87.332031 131.183594 87.5 130.476562 87.703125 C 129.789062 87.902344 129.105469 88.136719 128.421875 88.355469 C 140.480469 80.824219 153.515625 75.910156 167.441406 73.339844 C 181.417969 70.757812 195.398438 70.746094 209.371094 73.375 C 222.53125 75.847656 244.027344 84.128906 248.261719 88.347656 C 247.898438 88.234375 247.585938 88.152344 247.285156 88.039062 C 243.386719 86.558594 239.394531 86.375 235.351562 87.273438 C 234.90625 87.371094 234.277344 87.761719 234.207031 88.113281 C 234.132812 88.480469 234.609375 88.972656 234.886719 89.382812 C 234.996094 89.539062 235.210938 89.632812 235.390625 89.726562 C 238.335938 91.234375 241.21875 92.886719 244.242188 94.199219 C 249.414062 96.449219 255.011719 96.773438 260.53125 97.402344 C 261.136719 97.472656 261.808594 97.722656 262.273438 98.101562 C 263.953125 99.46875 265.566406 100.921875 267.1875 102.359375 C 267.917969 103.011719 268.613281 103.703125 269.328125 104.371094 C 268.933594 104.417969 268.691406 104.289062 268.457031 104.148438 C 265.625 102.417969 262.714844 100.859375 259.472656 100.011719 C 256.398438 99.207031 253.300781 98.679688 250.15625 99.453125 C 249.554688 99.601562 248.703125 100.09375 248.613281 100.554688 C 248.5 101.109375 249.046875 101.820312 249.371094 102.433594 C 249.492188 102.667969 249.789062 102.8125 250.011719 102.992188 C 254.109375 106.261719 258.714844 108.449219 263.851562 109.515625 C 268.171875 110.414062 272.53125 111.179688 276.542969 113.15625 C 276.972656 113.367188 277.59375 113.378906 277.863281 113.703125 C 279.40625 115.570312 280.871094 117.503906 282.363281 119.414062 C 282.058594 119.519531 281.90625 119.476562 281.78125 119.398438 C 278.804688 117.539062 275.609375 116.25 272.183594 115.472656 C 268.085938 114.542969 264.066406 114.695312 260.109375 116.089844 C 259.652344 116.25 259.109375 116.761719 259.015625 117.199219 C 258.945312 117.527344 259.441406 118.148438 259.835938 118.378906 C 261.992188 119.628906 264.164062 120.851562 266.386719 121.984375 C 272.675781 125.1875 279.546875 126.316406 286.425781 127.34375 C 287.488281 127.503906 287.992188 128.011719 288.460938 128.816406 C 297.785156 144.863281 303.023438 162.164062 304.171875 180.667969 C 304.828125 191.207031 303.988281 201.664062 301.726562 211.992188 C 299.046875 224.226562 294.546875 235.753906 288.132812 246.523438 C 287.855469 246.988281 287.316406 247.496094 286.816406 247.597656 C 283.496094 248.261719 280.140625 248.769531 276.816406 249.433594 C 270.589844 250.675781 265.042969 253.546875 259.65625 256.765625 C 258.59375 257.398438 258.6875 258.410156 259.839844 258.875 C 260.742188 259.238281 261.703125 259.5 262.65625 259.695312 C 269.167969 261.019531 275.125 259.363281 280.800781 256.246094 C 281.128906 256.066406 281.464844 255.894531 281.800781 255.71875 C 281.867188 255.800781 281.9375 255.878906 282.003906 255.960938 C 280.5625 257.769531 279.128906 259.585938 277.671875 261.386719 C 277.558594 261.53125 277.328125 261.585938 277.148438 261.667969 C 273.53125 263.359375 269.722656 264.410156 265.804688 265.121094 C 260.757812 266.039062 256.011719 267.703125 251.8125 270.730469 C 250.886719 271.398438 249.957031 272.078125 249.132812 272.867188 C 247.949219 273.996094 248.28125 275.128906 249.878906 275.550781 C 250.625 275.75 251.402344 275.871094 252.171875 275.910156 C 257.101562 276.164062 261.609375 274.710938 265.886719 272.398438 C 266.761719 271.929688 267.625 271.433594 268.496094 270.949219 C 268.554688 271.035156 268.617188 271.128906 268.679688 271.214844 C 266.3125 273.273438 263.949219 275.339844 261.570312 277.375 C 261.347656 277.566406 260.972656 277.621094 260.660156 277.65625 C 259.28125 277.8125 257.898438 277.941406 256.515625 278.074219 C 249.792969 278.714844 243.441406 280.523438 237.628906 284.046875 C 236.652344 284.636719 235.632812 285.167969 234.703125 285.824219 C 234.398438 286.035156 234.164062 286.582031 234.195312 286.949219 C 234.214844 287.226562 234.6875 287.65625 234.996094 287.691406 C 237.21875 287.929688 239.460938 288.277344 241.683594 288.214844 C 243.515625 288.164062 245.335938 287.589844 247.160156 287.25 C 229.199219 297.800781 209.828125 303.316406 188.96875 303.421875 C 167.5 303.527344 147.566406 297.984375 129.105469 287.0625 C 129.515625 287.0625 129.90625 287.148438 130.277344 287.28125 C 133.976562 288.570312 137.734375 288.585938 141.515625 287.757812 C 141.925781 287.667969 142.492188 287.304688 142.570312 286.964844 C 142.652344 286.621094 142.257812 286.132812 142.007812 285.753906 C 141.886719 285.566406 141.613281 285.472656 141.40625 285.339844 C 134.835938 281.171875 127.722656 278.523438 119.921875 278.097656 C 116.660156 277.917969 113.945312 277.003906 111.730469 274.515625 C 110.503906 273.136719 108.984375 272.015625 107.59375 270.777344 C 108.015625 270.730469 108.285156 270.878906 108.542969 271.042969 C 112.320312 273.414062 116.335938 275.246094 120.800781 275.738281 C 122.761719 275.953125 124.796875 275.820312 126.761719 275.554688 C 128.535156 275.3125 128.828125 274.039062 127.574219 272.773438 C 127.316406 272.515625 127.03125 272.277344 126.746094 272.046875 C 122.648438 268.773438 118.039062 266.597656 112.898438 265.53125 C 108.582031 264.636719 104.222656 263.863281 100.210938 261.886719 C 99.78125 261.675781 99.191406 261.621094 98.921875 261.292969 C 97.398438 259.449219 95.945312 257.546875 94.46875 255.660156 Z M 114.1875 257.539062 C 106.542969 259.988281 94.476562 254.71875 91.445312 249.914062 C 99.457031 251.058594 107.199219 252.894531 114.1875 257.539062 Z M 285.394531 249.914062 C 281.820312 255.503906 268.640625 259.898438 262.664062 257.488281 C 269.574219 252.898438 277.328125 251.050781 285.394531 249.914062 Z M 114.238281 117.476562 C 107.214844 122.179688 99.449219 123.992188 91.390625 125.148438 C 94.507812 120.488281 105.949219 115.160156 114.238281 117.476562 Z M 262.636719 117.46875 C 270.9375 115.039062 282.847656 120.847656 285.277344 125.113281 C 277.941406 124.609375 267.261719 121.027344 262.636719 117.46875 Z M 101.769531 280.542969 C 95.488281 273.707031 93.132812 265.339844 92.425781 256.304688 C 94.996094 260.640625 97.535156 265 99.6875 269.542969 C 101.304688 272.949219 101.753906 276.726562 101.769531 280.542969 Z M 284.273438 256.136719 C 284.515625 264.398438 278.929688 278.484375 274.847656 280.523438 C 275.074219 276.339844 275.652344 272.226562 277.519531 268.496094 C 279.546875 264.453125 281.902344 260.574219 284.113281 256.613281 C 284.195312 256.476562 284.222656 256.300781 284.273438 256.136719 Z M 274.953125 94.414062 C 279.8125 98.6875 285.4375 113.277344 284.355469 118.59375 C 278.953125 112.03125 274.445312 100.523438 274.953125 94.414062 Z M 92.363281 118.519531 C 93.183594 109.585938 95.527344 101.269531 101.816406 94.246094 C 102.03125 103.859375 97.050781 111.136719 92.363281 118.519531 Z M 267.851562 274.835938 C 264.640625 282.699219 260.996094 290.25 252.6875 294.15625 C 255.707031 286.152344 261.636719 280.398438 267.851562 274.835938 Z M 124.371094 294.394531 C 118.351562 292.121094 109.410156 280.585938 109.027344 274.953125 C 109.101562 274.984375 109.183594 275 109.242188 275.050781 C 109.742188 275.472656 110.246094 275.890625 110.730469 276.328125 C 115.414062 280.527344 119.527344 285.210938 122.726562 290.644531 C 123.371094 291.734375 123.761719 292.972656 124.371094 294.394531 Z M 267.753906 100.125 C 266.707031 99.214844 265.628906 98.339844 264.621094 97.390625 C 260.503906 93.496094 256.828125 89.230469 253.988281 84.304688 C 253.378906 83.246094 253.015625 82.046875 252.539062 80.914062 C 260.910156 84.757812 264.558594 92.214844 267.753906 100.125 Z M 124.09375 80.917969 C 121.039062 88.828125 115.351562 94.644531 108.988281 99.933594 C 112.230469 92.1875 115.882812 84.761719 124.09375 80.917969 Z M 125.507812 273.765625 C 118.917969 274.800781 110.609375 270.753906 104.347656 265.59375 C 111.777344 267.382812 119.417969 268.308594 125.507812 273.765625 Z M 272.359375 265.710938 C 266.113281 270.269531 259.730469 274.472656 251.167969 273.863281 C 257.363281 268.308594 265.003906 267.382812 272.359375 265.710938 Z M 125.488281 101.308594 C 119.414062 106.742188 111.789062 107.683594 104.324219 109.460938 C 110.820312 104.164062 119.117188 100.226562 125.488281 101.308594 Z M 272.324219 109.328125 C 264.964844 107.675781 257.335938 106.742188 251.171875 101.183594 C 259.726562 100.601562 266.105469 104.777344 272.324219 109.328125 Z M 138.273438 286.164062 C 131.214844 286.640625 125.363281 283.246094 119.390625 280.253906 C 126.207031 280.523438 132.542969 282.339844 138.273438 286.164062 Z M 238.339844 286.148438 C 242.273438 283.039062 253.492188 279.582031 257.453125 280.234375 C 257.09375 280.460938 256.808594 280.695312 256.484375 280.832031 C 252.816406 282.394531 249.183594 284.0625 245.453125 285.453125 C 243.253906 286.269531 240.898438 286.734375 238.339844 286.148438 Z M 119.40625 94.824219 C 124.109375 92.242188 128.882812 89.855469 134.207031 88.921875 C 136.949219 88.441406 137.121094 88.539062 138.332031 89.074219 C 132.542969 92.730469 126.203125 94.523438 119.40625 94.824219 Z M 238.519531 88.886719 C 245.578125 88.441406 251.429688 91.800781 257.394531 94.808594 C 250.570312 94.53125 244.238281 92.714844 238.519531 88.886719 Z M 238.519531 88.886719 " fill-opacity="1" fill-rule="nonzero"/></g><g fill="#4d6e74" fill-opacity="1"><g transform="translate(110.674012, 198.741643)"><g><path d="M 42.953125 -2.328125 C 42.953125 0.804688 44.21875 2.375 46.75 2.375 C 49.125 2.375 52.054688 0.972656 55.546875 -1.828125 C 59.359375 -4.859375 61.972656 -8.050781 63.390625 -11.40625 C 65.003906 -15.1875 65.8125 -18.410156 65.8125 -21.078125 C 65.8125 -23.742188 65.273438 -25.75 64.203125 -27.09375 C 63.140625 -28.445312 61.671875 -29.125 59.796875 -29.125 C 59.367188 -29.125 58.921875 -29.09375 58.453125 -29.03125 C 57.660156 -28.832031 57.078125 -28.734375 56.703125 -28.734375 C 56.328125 -28.734375 56.140625 -28.832031 56.140625 -29.03125 C 56.140625 -29.332031 56.441406 -29.613281 57.046875 -29.875 C 57.660156 -30.132812 58.125 -30.265625 58.4375 -30.265625 C 58.75 -30.265625 59.003906 -30.265625 59.203125 -30.265625 C 59.398438 -30.265625 59.628906 -30.265625 59.890625 -30.265625 C 61.765625 -30.265625 63.484375 -29.523438 65.046875 -28.046875 C 66.609375 -26.566406 67.617188 -24.394531 68.078125 -21.53125 C 68.179688 -20.832031 68.234375 -20.125 68.234375 -19.40625 C 68.234375 -16.96875 67.65625 -14.203125 66.5 -11.109375 C 64.894531 -7.023438 62.125 -3.550781 58.1875 -0.6875 C 54.25 2.175781 50.632812 3.609375 47.34375 3.609375 C 43.925781 3.609375 41.820312 2.023438 41.03125 -1.140625 C 40.800781 -1.960938 40.6875 -3.078125 40.6875 -4.484375 C 40.6875 -5.898438 41.03125 -7.742188 41.71875 -10.015625 C 39.9375 -7.054688 37.632812 -3.847656 34.8125 -0.390625 C 33.257812 1.453125 31.675781 2.984375 30.0625 4.203125 C 28.351562 5.484375 26.90625 6.125 25.71875 6.125 C 23.382812 6.125 22.21875 4.707031 22.21875 1.875 C 22.21875 -1.445312 24.375 -8.226562 28.6875 -18.46875 C 31.382812 -24.988281 32.734375 -29.875 32.734375 -33.125 C 32.734375 -35.238281 32.097656 -36.695312 30.828125 -37.5 C 29.566406 -38.300781 28.0625 -38.703125 26.3125 -38.703125 C 25.550781 -38.703125 24.757812 -38.625 23.9375 -38.46875 C 18.113281 -37.28125 12.945312 -34.132812 8.4375 -29.03125 C 6.195312 -26.46875 4.648438 -24.007812 3.796875 -21.65625 C 2.941406 -19.300781 2.457031 -17.554688 2.34375 -16.421875 C 2.226562 -15.285156 2.171875 -14.34375 2.171875 -13.59375 C 2.171875 -12.851562 2.3125 -12.003906 2.59375 -11.046875 C 2.875 -10.097656 3.359375 -9.210938 4.046875 -8.390625 C 5.328125 -6.910156 7.117188 -6.171875 9.421875 -6.171875 C 13.242188 -6.171875 16.273438 -8.160156 18.515625 -12.140625 C 19.660156 -14.179688 20.234375 -16.023438 20.234375 -17.671875 C 20.234375 -20.367188 19.035156 -21.71875 16.640625 -21.71875 C 16.242188 -21.71875 15.75 -21.664062 15.15625 -21.5625 C 14.5625 -21.46875 14.28125 -21.535156 14.3125 -21.765625 C 14.34375 -22.003906 14.785156 -22.253906 15.640625 -22.515625 C 16.503906 -22.773438 17.363281 -22.90625 18.21875 -22.90625 C 19.925781 -22.90625 21.175781 -22.25 21.96875 -20.9375 C 22.457031 -20.113281 22.703125 -19.140625 22.703125 -18.015625 C 22.703125 -16.898438 22.390625 -15.601562 21.765625 -14.125 C 20.085938 -10.269531 17.078125 -7.4375 12.734375 -5.625 C 11.585938 -5.132812 10.519531 -4.890625 9.53125 -4.890625 C 6.300781 -4.890625 3.734375 -6.039062 1.828125 -8.34375 C 0.472656 -9.925781 -0.382812 -11.96875 -0.75 -14.46875 C -0.8125 -14.957031 -0.84375 -15.46875 -0.84375 -16 C -0.84375 -18.101562 -0.304688 -20.378906 0.765625 -22.828125 C 1.835938 -25.285156 3.289062 -27.566406 5.125 -29.671875 C 6.96875 -31.773438 8.976562 -33.535156 11.15625 -34.953125 C 13.332031 -36.367188 15.617188 -37.554688 18.015625 -38.515625 C 20.515625 -39.460938 22.832031 -39.9375 24.96875 -39.9375 C 27.113281 -39.9375 29.0625 -39.609375 30.8125 -38.953125 C 33.96875 -37.578125 35.546875 -34.925781 35.546875 -31 C 35.546875 -27.78125 34.441406 -23.664062 32.234375 -18.65625 C 30.722656 -15.269531 29.273438 -11.632812 27.890625 -7.75 C 25.921875 -2.21875 24.9375 1.382812 24.9375 3.0625 C 24.9375 4.25 25.347656 4.84375 26.171875 4.84375 C 26.597656 4.84375 27.109375 4.644531 27.703125 4.25 C 29.472656 3.195312 31.410156 1.207031 33.515625 -1.71875 C 35.628906 -4.65625 37.820312 -8.066406 40.09375 -11.953125 C 42.363281 -15.835938 43.972656 -18.4375 44.921875 -19.75 C 45.878906 -21.0625 46.703125 -21.71875 47.390625 -21.71875 C 47.554688 -21.71875 47.722656 -21.6875 47.890625 -21.625 C 48.316406 -21.394531 48.53125 -20.953125 48.53125 -20.296875 C 48.53125 -19.640625 48.4375 -19.046875 48.25 -18.515625 C 48.070312 -17.984375 47.226562 -15.882812 45.71875 -12.21875 C 44.207031 -8.550781 43.367188 -6.128906 43.203125 -4.953125 C 43.035156 -3.785156 42.953125 -2.910156 42.953125 -2.328125 Z M 42.953125 -2.328125 "/></g></g></g><g fill="#4d6e74" fill-opacity="1"><g transform="translate(177.024839, 198.741643)"><g><path d="M 9.578125 -19.203125 C 9.117188 -18.804688 8.609375 -18.609375 8.046875 -18.609375 C 7.484375 -18.609375 7.035156 -18.804688 6.703125 -19.203125 C 6.378906 -19.597656 6.25 -20.078125 6.3125 -20.640625 C 6.414062 -21.203125 6.695312 -21.675781 7.15625 -22.0625 C 7.613281 -22.457031 8.125 -22.65625 8.6875 -22.65625 C 9.25 -22.65625 9.703125 -22.457031 10.046875 -22.0625 C 10.390625 -21.675781 10.507812 -21.203125 10.40625 -20.640625 C 10.3125 -20.078125 10.035156 -19.597656 9.578125 -19.203125 Z M 4.734375 -1.09375 C 5.359375 -1.09375 6.019531 -1.40625 6.71875 -2.03125 C 7.9375 -3.238281 9.484375 -5.722656 11.359375 -9.484375 C 11.585938 -9.972656 11.816406 -10.117188 12.046875 -9.921875 C 12.109375 -9.859375 12.140625 -9.75 12.140625 -9.59375 C 12.140625 -9.445312 12.007812 -9.085938 11.75 -8.515625 C 11.488281 -7.941406 11.25 -7.421875 11.03125 -6.953125 C 10.820312 -6.492188 10.410156 -5.742188 9.796875 -4.703125 C 9.191406 -3.671875 8.640625 -2.878906 8.140625 -2.328125 C 6.796875 -0.773438 5.519531 0 4.3125 0 C 3.113281 0 2.25 -0.359375 1.71875 -1.078125 C 1.195312 -1.804688 0.9375 -2.613281 0.9375 -3.5 C 0.9375 -4.394531 1.148438 -5.367188 1.578125 -6.421875 L 4.734375 -14.46875 C 4.804688 -14.664062 4.84375 -14.925781 4.84375 -15.25 C 4.84375 -15.582031 4.644531 -16.015625 4.25 -16.546875 L 6.96875 -16.59375 C 7.71875 -16.59375 8.160156 -16.453125 8.296875 -16.171875 C 8.429688 -15.890625 8.332031 -15.453125 8 -14.859375 L 4.046875 -5.625 C 3.484375 -4.40625 3.203125 -3.367188 3.203125 -2.515625 C 3.203125 -1.566406 3.710938 -1.09375 4.734375 -1.09375 Z M 4.734375 -1.09375 "/></g></g></g><g fill="#4d6e74" fill-opacity="1"><g transform="translate(185.614902, 198.741643)"><g><path d="M 5.53125 -9.53125 C 5.5 -9.394531 5.347656 -8.941406 5.078125 -8.171875 C 4.816406 -7.398438 4.59375 -6.660156 4.40625 -5.953125 C 4.226562 -5.242188 4.140625 -4.535156 4.140625 -3.828125 C 4.140625 -3.117188 4.304688 -2.457031 4.640625 -1.84375 C 4.972656 -1.238281 5.5 -0.9375 6.21875 -0.9375 C 7.40625 -0.9375 8.554688 -1.734375 9.671875 -3.328125 C 10.796875 -4.929688 11.984375 -6.96875 13.234375 -9.4375 C 13.492188 -9.894531 13.738281 -10.070312 13.96875 -9.96875 C 14.132812 -9.84375 14.164062 -9.671875 14.0625 -9.453125 C 13.96875 -9.242188 13.765625 -8.785156 13.453125 -8.078125 C 13.140625 -7.367188 12.910156 -6.875 12.765625 -6.59375 C 12.617188 -6.3125 12.351562 -5.816406 11.96875 -5.109375 C 11.59375 -4.398438 11.265625 -3.875 10.984375 -3.53125 C 10.703125 -3.1875 10.320312 -2.738281 9.84375 -2.1875 C 9.375 -1.644531 8.925781 -1.242188 8.5 -0.984375 C 7.34375 -0.265625 6.253906 0.09375 5.234375 0.09375 C 4.210938 0.09375 3.421875 -0.125 2.859375 -0.5625 C 2.304688 -1.007812 1.96875 -1.488281 1.84375 -2 C 1.726562 -2.507812 1.671875 -2.960938 1.671875 -3.359375 C 1.671875 -3.753906 1.691406 -4.265625 1.734375 -4.890625 C 1.828125 -5.941406 2.03125 -6.960938 2.34375 -7.953125 C 2.65625 -8.941406 2.828125 -9.5 2.859375 -9.625 C 3.617188 -12.351562 4.695312 -15.332031 6.09375 -18.5625 C 7.5 -21.789062 8.6875 -24.21875 9.65625 -25.84375 C 10.625 -27.476562 11.390625 -28.59375 11.953125 -29.1875 C 13.066406 -30.363281 14.164062 -30.953125 15.25 -30.953125 C 16.007812 -30.953125 16.519531 -30.410156 16.78125 -29.328125 C 16.820312 -29.128906 16.84375 -28.882812 16.84375 -28.59375 C 16.84375 -27.46875 16.445312 -26.050781 15.65625 -24.34375 C 12.820312 -18.050781 9.445312 -13.113281 5.53125 -9.53125 Z M 5.921875 -11.109375 C 7.597656 -12.816406 9.257812 -14.972656 10.90625 -17.578125 C 12.550781 -20.179688 13.757812 -22.394531 14.53125 -24.21875 C 15.3125 -26.039062 15.703125 -27.28125 15.703125 -27.9375 C 15.703125 -28.601562 15.585938 -28.9375 15.359375 -28.9375 C 15.023438 -28.9375 14.394531 -28.285156 13.46875 -26.984375 C 12.550781 -25.679688 11.3125 -23.34375 9.75 -19.96875 C 8.1875 -16.59375 6.910156 -13.640625 5.921875 -11.109375 Z M 5.921875 -11.109375 "/></g></g></g><g fill="#4d6e74" fill-opacity="1"><g transform="translate(196.080951, 198.741643)"><g><path d="M 13.234375 -2.859375 C 13.234375 -1.804688 13.660156 -1.28125 14.515625 -1.28125 C 16.066406 -1.28125 18.125 -3.863281 20.6875 -9.03125 C 20.789062 -9.226562 20.878906 -9.425781 20.953125 -9.625 C 21.035156 -9.820312 21.164062 -9.953125 21.34375 -10.015625 C 21.53125 -10.085938 21.65625 -10.046875 21.71875 -9.890625 C 21.789062 -9.742188 21.757812 -9.507812 21.625 -9.1875 C 18.988281 -3.0625 16.320312 0 13.625 0 C 12.738281 0 12.03125 -0.394531 11.5 -1.1875 C 10.976562 -1.976562 10.71875 -2.757812 10.71875 -3.53125 C 10.71875 -4.300781 10.800781 -5.015625 10.96875 -5.671875 C 9.050781 -2.515625 7.40625 -0.722656 6.03125 -0.296875 C 5.632812 -0.128906 5.242188 -0.046875 4.859375 -0.046875 C 4.484375 -0.046875 4.113281 -0.0976562 3.75 -0.203125 C 2.132812 -0.628906 1.328125 -1.910156 1.328125 -4.046875 C 1.328125 -5.492188 1.695312 -7.097656 2.4375 -8.859375 C 3.1875 -10.617188 4.234375 -12.304688 5.578125 -13.921875 C 6.929688 -15.535156 8.5625 -16.625 10.46875 -17.1875 C 11.15625 -17.414062 11.96875 -17.53125 12.90625 -17.53125 C 13.84375 -17.53125 14.890625 -17.234375 16.046875 -16.640625 C 18.285156 -20.847656 20.195312 -24.75 21.78125 -28.34375 C 22.238281 -29.425781 22.6875 -30.125 23.125 -30.4375 C 23.570312 -30.75 23.984375 -30.90625 24.359375 -30.90625 C 24.742188 -30.90625 24.976562 -30.90625 25.0625 -30.90625 C 25.144531 -30.90625 25.457031 -30.863281 26 -30.78125 C 26.539062 -30.695312 26.957031 -30.675781 27.25 -30.71875 C 26.5 -30.019531 24.492188 -26.660156 21.234375 -20.640625 C 17.085938 -12.929688 14.582031 -7.796875 13.71875 -5.234375 C 13.394531 -4.273438 13.234375 -3.484375 13.234375 -2.859375 Z M 15.65625 -15.84375 C 15.226562 -16.269531 14.625 -16.484375 13.84375 -16.484375 C 13.070312 -16.484375 11.992188 -15.910156 10.609375 -14.765625 C 8.410156 -12.921875 6.585938 -10.648438 5.140625 -7.953125 C 4.179688 -6.171875 3.703125 -4.707031 3.703125 -3.5625 C 3.703125 -3.03125 3.804688 -2.550781 4.015625 -2.125 C 4.234375 -1.695312 4.570312 -1.484375 5.03125 -1.484375 C 6.15625 -1.484375 7.539062 -2.632812 9.1875 -4.9375 C 10.832031 -7.238281 12.988281 -10.875 15.65625 -15.84375 Z M 15.65625 -15.84375 "/></g></g></g><g fill="#4d6e74" fill-opacity="1"><g transform="translate(214.199075, 198.741643)"><g><path d="M 9.484375 -19.796875 C 9.484375 -18.316406 8.539062 -16.921875 6.65625 -15.609375 C 7.320312 -15.566406 8.203125 -15.546875 9.296875 -15.546875 C 10.398438 -15.546875 11.796875 -15.628906 13.484375 -15.796875 C 13.546875 -15.703125 13.578125 -15.441406 13.578125 -15.015625 C 13.578125 -14.585938 13.378906 -13.953125 12.984375 -13.109375 C 12.585938 -12.265625 12.234375 -11.535156 11.921875 -10.921875 C 11.609375 -10.316406 11.3125 -9.742188 11.03125 -9.203125 C 10.75 -8.660156 10.4375 -7.992188 10.09375 -7.203125 C 9.75 -6.421875 9.460938 -5.695312 9.234375 -5.03125 C 8.410156 -2.53125 8.539062 -1.28125 9.625 -1.28125 C 11.007812 -1.28125 13.050781 -4.03125 15.75 -9.53125 C 15.976562 -9.957031 16.164062 -10.117188 16.3125 -10.015625 C 16.457031 -9.921875 16.53125 -9.800781 16.53125 -9.65625 C 16.53125 -9.507812 16.316406 -9 15.890625 -8.125 C 15.460938 -7.25 15 -6.347656 14.5 -5.421875 C 14.007812 -4.503906 13.238281 -3.4375 12.1875 -2.21875 C 10.9375 -0.707031 9.738281 0.046875 8.59375 0.046875 C 7.300781 0.046875 6.410156 -0.722656 5.921875 -2.265625 C 5.828125 -2.566406 5.78125 -3.015625 5.78125 -3.609375 C 5.78125 -4.203125 5.96875 -4.988281 6.34375 -5.96875 C 6.71875 -6.957031 7.316406 -8.160156 8.140625 -9.578125 C 8.960938 -10.992188 9.421875 -11.820312 9.515625 -12.0625 C 9.617188 -12.3125 9.671875 -12.550781 9.671875 -12.78125 C 9.671875 -13.800781 8.351562 -14.347656 5.71875 -14.421875 L 5.125 -12.84375 C 3.050781 -7.40625 1.0625 -3.765625 -0.84375 -1.921875 C -1.164062 -1.628906 -1.328125 -1.726562 -1.328125 -2.21875 C -1.328125 -2.320312 -1.296875 -2.4375 -1.234375 -2.5625 C 0.609375 -5 2.203125 -7.878906 3.546875 -11.203125 C 4.898438 -14.523438 5.835938 -17.6875 6.359375 -20.6875 C 6.554688 -21.707031 7.015625 -22.21875 7.734375 -22.21875 C 8.460938 -22.21875 8.992188 -21.757812 9.328125 -20.84375 C 9.429688 -20.539062 9.484375 -20.191406 9.484375 -19.796875 Z M 9.484375 -19.796875 "/></g></g></g><g fill="#4d6e74" fill-opacity="1"><g transform="translate(227.034803, 198.741643)"><g><path d="M 4.984375 -7.609375 C 4.523438 -6.484375 4.296875 -5.226562 4.296875 -3.84375 C 4.296875 -2.925781 4.5 -2.195312 4.90625 -1.65625 C 5.320312 -1.113281 5.910156 -0.84375 6.671875 -0.84375 C 9.660156 -0.84375 12.375 -3.65625 14.8125 -9.28125 C 15.039062 -9.8125 15.320312 -10.039062 15.65625 -9.96875 C 15.78125 -9.9375 15.84375 -9.851562 15.84375 -9.71875 C 15.84375 -9.59375 15.472656 -8.726562 14.734375 -7.125 C 13.992188 -5.53125 13.242188 -4.242188 12.484375 -3.265625 C 10.804688 -0.953125 8.734375 0.203125 6.265625 0.203125 C 4.953125 0.203125 3.832031 -0.222656 2.90625 -1.078125 C 1.988281 -1.941406 1.53125 -3.113281 1.53125 -4.59375 C 1.53125 -6.070312 1.882812 -7.640625 2.59375 -9.296875 C 3.300781 -10.960938 4.265625 -12.507812 5.484375 -13.9375 C 6.703125 -15.375 8.097656 -16.421875 9.671875 -17.078125 C 10.429688 -17.410156 11.15625 -17.578125 11.84375 -17.578125 C 12.539062 -17.578125 13.1875 -17.378906 13.78125 -16.984375 C 14.332031 -16.523438 14.609375 -16.015625 14.609375 -15.453125 C 14.609375 -13.472656 13.425781 -11.582031 11.0625 -9.78125 C 10.332031 -9.21875 9.3125 -8.710938 8 -8.265625 C 6.6875 -7.828125 5.679688 -7.609375 4.984375 -7.609375 Z M 13.28125 -15.5 C 13.28125 -16.15625 13.015625 -16.484375 12.484375 -16.484375 C 11.566406 -16.484375 10.171875 -15.347656 8.296875 -13.078125 C 7.171875 -11.703125 6.179688 -10.15625 5.328125 -8.4375 C 5.890625 -8.4375 6.703125 -8.632812 7.765625 -9.03125 C 8.835938 -9.425781 9.769531 -9.953125 10.5625 -10.609375 C 12.375 -12.160156 13.28125 -13.789062 13.28125 -15.5 Z M 13.28125 -15.5 "/></g></g></g><g fill="#4d6e74" fill-opacity="1"><g transform="translate(239.179371, 198.741643)"><g><path d="M 17.71875 -16.1875 C 13.675781 -9.082031 11.65625 -4.441406 11.65625 -2.265625 C 11.65625 -1.410156 11.96875 -0.984375 12.59375 -0.984375 C 14.269531 -0.984375 16.523438 -3.832031 19.359375 -9.53125 C 19.554688 -9.988281 19.753906 -10.164062 19.953125 -10.0625 C 20.148438 -9.96875 20.25 -9.835938 20.25 -9.671875 C 20.25 -9.515625 20.179688 -9.316406 20.046875 -9.078125 C 18.296875 -5.554688 16.820312 -3.128906 15.625 -1.796875 C 14.425781 -0.460938 13.222656 0.203125 12.015625 0.203125 C 10.816406 0.203125 9.90625 -0.257812 9.28125 -1.1875 C 8.945312 -1.613281 8.78125 -2.195312 8.78125 -2.9375 C 8.78125 -3.675781 8.945312 -4.570312 9.28125 -5.625 C 9.613281 -6.675781 10.519531 -8.390625 12 -10.765625 C 12.363281 -11.359375 12.546875 -11.828125 12.546875 -12.171875 C 12.546875 -12.515625 12.265625 -12.6875 11.703125 -12.6875 C 11.140625 -12.6875 10.070312 -11.945312 8.5 -10.46875 C 6.125 -8.289062 3.832031 -5.03125 1.625 -0.6875 C 1.425781 -0.363281 1.203125 -0.160156 0.953125 -0.078125 C 0.710938 0.00390625 0.234375 0.0625 -0.484375 0.09375 C -1.210938 0.125 -1.691406 0.207031 -1.921875 0.34375 C -1.398438 -0.707031 -0.363281 -2.863281 1.1875 -6.125 C 3.945312 -11.882812 5.753906 -15.175781 6.609375 -16 C 7.003906 -16.394531 7.550781 -16.59375 8.25 -16.59375 C 8.375 -16.59375 8.707031 -16.539062 9.25 -16.4375 C 9.800781 -16.34375 10.207031 -16.328125 10.46875 -16.390625 C 9.25 -15.734375 7.257812 -12.640625 4.5 -7.109375 C 6.039062 -9.015625 7.441406 -10.535156 8.703125 -11.671875 C 9.972656 -12.804688 11.5 -13.859375 13.28125 -14.828125 C 15.0625 -15.804688 16.363281 -16.296875 17.1875 -16.296875 C 17.382812 -16.296875 17.5625 -16.257812 17.71875 -16.1875 Z M 17.71875 -16.1875 "/></g></g></g><g fill="#4d6e74" fill-opacity="1"><g transform="translate(255.717709, 198.741643)"><g><path d="M 1.578125 -3.953125 C 1.578125 -6.679688 2.894531 -11.253906 5.53125 -17.671875 L 2.96875 -17.671875 C 2.800781 -17.671875 2.691406 -17.757812 2.640625 -17.9375 C 2.585938 -18.125 2.601562 -18.304688 2.6875 -18.484375 C 2.769531 -18.671875 2.894531 -18.765625 3.0625 -18.765625 L 6.03125 -18.765625 C 7.207031 -21.359375 8.304688 -23.523438 9.328125 -25.265625 C 10.347656 -27.015625 11.285156 -28.191406 12.140625 -28.796875 C 13.003906 -29.410156 13.625 -29.71875 14 -29.71875 C 14.375 -29.71875 14.644531 -29.6875 14.8125 -29.625 C 15.570312 -29.257812 15.953125 -28.507812 15.953125 -27.375 C 15.953125 -26.238281 15.570312 -24.863281 14.8125 -23.25 C 14.050781 -21.644531 13.3125 -20.148438 12.59375 -18.765625 L 14.953125 -18.765625 C 15.117188 -18.765625 15.226562 -18.671875 15.28125 -18.484375 C 15.332031 -18.304688 15.316406 -18.125 15.234375 -17.9375 C 15.148438 -17.757812 15.023438 -17.671875 14.859375 -17.671875 L 12 -17.671875 C 10.1875 -14.609375 8 -11.894531 5.4375 -9.53125 L 4.296875 -4.5 C 4.191406 -4.0625 4.140625 -3.632812 4.140625 -3.21875 C 4.140625 -2.8125 4.253906 -2.394531 4.484375 -1.96875 C 4.722656 -1.539062 5.085938 -1.328125 5.578125 -1.328125 C 6.140625 -1.328125 6.765625 -1.523438 7.453125 -1.921875 C 9.035156 -3.109375 10.78125 -5.59375 12.6875 -9.375 C 12.820312 -9.675781 12.976562 -9.859375 13.15625 -9.921875 C 13.34375 -9.984375 13.453125 -9.941406 13.484375 -9.796875 C 13.515625 -9.648438 13.460938 -9.410156 13.328125 -9.078125 C 12.242188 -6.804688 11.390625 -5.195312 10.765625 -4.25 C 8.984375 -1.382812 7.085938 0.046875 5.078125 0.046875 C 4.066406 0.046875 3.226562 -0.328125 2.5625 -1.078125 C 1.90625 -1.835938 1.578125 -2.796875 1.578125 -3.953125 Z M 11.5 -18.765625 C 13.675781 -22.648438 14.765625 -25.347656 14.765625 -26.859375 C 14.765625 -27.515625 14.648438 -27.84375 14.421875 -27.84375 C 14.054688 -27.84375 13.503906 -27.316406 12.765625 -26.265625 C 12.023438 -25.210938 10.78125 -22.710938 9.03125 -18.765625 Z M 10.859375 -17.671875 L 8.546875 -17.671875 C 8.148438 -16.753906 7.257812 -14.566406 5.875 -11.109375 C 7.65625 -12.953125 9.316406 -15.140625 10.859375 -17.671875 Z M 10.859375 -17.671875 "/></g></g></g><g fill="#4d6e74" fill-opacity="1"><g transform="translate(141.481368, 253.255647)"><g><path d="M 3.640625 2.3125 C 3.023438 1.9375 2.550781 1.457031 2.21875 0.875 C 1.882812 0.300781 1.722656 -0.304688 1.734375 -0.953125 C 1.742188 -1.597656 1.929688 -2.21875 2.296875 -2.8125 C 2.660156 -3.40625 3.128906 -3.859375 3.703125 -4.171875 C 4.273438 -4.492188 4.894531 -4.632812 5.5625 -4.59375 C 6.226562 -4.5625 6.867188 -4.359375 7.484375 -3.984375 C 7.972656 -3.691406 8.363281 -3.34375 8.65625 -2.9375 C 8.957031 -2.53125 9.15625 -2.082031 9.25 -1.59375 L 8.328125 -1.390625 C 8.171875 -2.160156 7.742188 -2.757812 7.046875 -3.1875 C 6.597656 -3.457031 6.125 -3.597656 5.625 -3.609375 C 5.132812 -3.628906 4.671875 -3.523438 4.234375 -3.296875 C 3.804688 -3.066406 3.457031 -2.726562 3.1875 -2.28125 C 2.914062 -1.84375 2.773438 -1.375 2.765625 -0.875 C 2.753906 -0.382812 2.867188 0.0703125 3.109375 0.5 C 3.359375 0.9375 3.707031 1.289062 4.15625 1.5625 C 4.84375 1.976562 5.570312 2.082031 6.34375 1.875 L 6.578125 2.78125 C 6.109375 2.925781 5.617188 2.957031 5.109375 2.875 C 4.609375 2.789062 4.117188 2.601562 3.640625 2.3125 Z M 3.640625 2.3125 "/></g></g></g><g fill="#4d6e74" fill-opacity="1"><g transform="translate(150.927753, 258.735176)"><g><path d="M 6.140625 1.75 L 5.78125 2.5625 L 0.984375 0.4375 L 3.90625 -6.15625 L 8.5625 -4.09375 L 8.203125 -3.28125 L 4.484375 -4.921875 L 3.59375 -2.890625 L 6.90625 -1.421875 L 6.546875 -0.625 L 3.234375 -2.09375 L 2.28125 0.046875 Z M 6.140625 1.75 "/></g></g></g><g fill="#4d6e74" fill-opacity="1"><g transform="translate(160.480077, 262.71683)"><g><path d="M 3.140625 -6.59375 L 4.125 -6.296875 L 2.28125 -0.25 L 6.015625 0.890625 L 5.75 1.75 L 1.03125 0.3125 Z M 3.140625 -6.59375 "/></g></g></g><g fill="#4d6e74" fill-opacity="1"><g transform="translate(169.684896, 265.32485)"><g><path d="M 6.390625 0.21875 L 6.234375 1.09375 L 1.0625 0.1875 L 2.3125 -6.921875 L 7.328125 -6.046875 L 7.171875 -5.171875 L 3.171875 -5.875 L 2.78125 -3.6875 L 6.34375 -3.0625 L 6.203125 -2.203125 L 2.640625 -2.828125 L 2.234375 -0.515625 Z M 6.390625 0.21875 "/></g></g></g><g fill="#4d6e74" fill-opacity="1"><g transform="translate(179.944119, 266.920517)"><g><path d="M 6.09375 -3.5 C 6.5 -3.363281 6.816406 -3.140625 7.046875 -2.828125 C 7.285156 -2.515625 7.394531 -2.125 7.375 -1.65625 C 7.351562 -1.03125 7.097656 -0.554688 6.609375 -0.234375 C 6.117188 0.078125 5.425781 0.21875 4.53125 0.1875 L 1.078125 0.046875 L 1.375 -7.171875 L 4.625 -7.046875 C 5.445312 -7.003906 6.070312 -6.8125 6.5 -6.46875 C 6.9375 -6.125 7.144531 -5.660156 7.125 -5.078125 C 7.113281 -4.691406 7.015625 -4.363281 6.828125 -4.09375 C 6.640625 -3.820312 6.394531 -3.625 6.09375 -3.5 Z M 2.375 -6.296875 L 2.28125 -3.984375 L 4.40625 -3.90625 C 4.925781 -3.882812 5.332031 -3.960938 5.625 -4.140625 C 5.914062 -4.328125 6.070312 -4.613281 6.09375 -5 C 6.101562 -5.375 5.96875 -5.664062 5.6875 -5.875 C 5.414062 -6.082031 5.019531 -6.195312 4.5 -6.21875 Z M 4.515625 -0.640625 C 5.097656 -0.617188 5.539062 -0.695312 5.84375 -0.875 C 6.15625 -1.0625 6.316406 -1.363281 6.328125 -1.78125 C 6.359375 -2.582031 5.785156 -3.003906 4.609375 -3.046875 L 2.234375 -3.140625 L 2.140625 -0.734375 Z M 4.515625 -0.640625 "/></g></g></g><g fill="#4d6e74" fill-opacity="1"><g transform="translate(191.230851, 267.135807)"><g><path d="M 5.875 -0.5625 L 4.125 -2.625 C 3.9375 -2.59375 3.785156 -2.570312 3.671875 -2.5625 L 1.890625 -2.390625 L 2.09375 -0.203125 L 1.078125 -0.109375 L 0.390625 -7.296875 L 3.1875 -7.5625 C 4.113281 -7.644531 4.863281 -7.488281 5.4375 -7.09375 C 6.019531 -6.695312 6.347656 -6.113281 6.421875 -5.34375 C 6.472656 -4.789062 6.378906 -4.300781 6.140625 -3.875 C 5.910156 -3.457031 5.550781 -3.132812 5.0625 -2.90625 L 7 -0.671875 Z M 3.5625 -3.4375 C 4.207031 -3.488281 4.6875 -3.671875 5 -3.984375 C 5.3125 -4.304688 5.441406 -4.726562 5.390625 -5.25 C 5.347656 -5.757812 5.140625 -6.132812 4.765625 -6.375 C 4.398438 -6.625 3.894531 -6.722656 3.25 -6.671875 L 1.484375 -6.5 L 1.796875 -3.265625 Z M 3.5625 -3.4375 "/></g></g></g><g fill="#4d6e74" fill-opacity="1"><g transform="translate(202.13175, 265.861094)"><g><path d="M 5.125 -3.0625 L 1.390625 -2.1875 L 1.015625 -0.234375 L -0.015625 0 L 1.53125 -7.78125 L 2.53125 -8 L 7.359375 -1.71875 L 6.296875 -1.46875 Z M 4.59375 -3.78125 L 2.265625 -6.875 L 1.546875 -3.0625 Z M 4.59375 -3.78125 "/></g></g></g><g fill="#4d6e74" fill-opacity="1"><g transform="translate(212.776787, 263.098031)"><g><path d="M 0.15625 -6.8125 L -2.15625 -5.953125 L -2.46875 -6.78125 L 3.125 -8.859375 L 3.4375 -8.03125 L 1.109375 -7.171875 L 3.3125 -1.234375 L 2.359375 -0.875 Z M 0.15625 -6.8125 "/></g></g></g><g fill="#4d6e74" fill-opacity="1"><g transform="translate(221.611647, 259.622795)"><g><path d="M 5.21875 -3.703125 L 5.625 -2.90625 L 0.953125 -0.5 L -2.359375 -6.90625 L 2.171875 -9.234375 L 2.578125 -8.453125 L -1.03125 -6.59375 L -0.015625 -4.625 L 3.203125 -6.28125 L 3.609375 -5.5 L 0.390625 -3.84375 L 1.46875 -1.765625 Z M 5.21875 -3.703125 "/></g></g></g><g fill="#4d6e74" fill-opacity="1"><g transform="translate(230.619597, 254.65854)"><g><path d="M -3.265625 -6.484375 L -2.28125 -7.125 L 0.25 -2.875 L -0.421875 -2.4375 Z M 1.203125 -0.71875 C 1.035156 -0.613281 0.863281 -0.578125 0.6875 -0.609375 C 0.519531 -0.640625 0.382812 -0.734375 0.28125 -0.890625 C 0.175781 -1.046875 0.140625 -1.210938 0.171875 -1.390625 C 0.210938 -1.578125 0.316406 -1.722656 0.484375 -1.828125 C 0.640625 -1.929688 0.800781 -1.960938 0.96875 -1.921875 C 1.144531 -1.878906 1.285156 -1.78125 1.390625 -1.625 C 1.492188 -1.46875 1.523438 -1.300781 1.484375 -1.125 C 1.453125 -0.945312 1.359375 -0.8125 1.203125 -0.71875 Z M 1.203125 -0.71875 "/></g></g></g><g fill="#4d6e74" fill-opacity="1"><g transform="translate(140.30819, 130.328773)"><g><path d="M 4.734375 -3.53125 L 2.15625 -4.390625 C 2.007812 -4.265625 1.890625 -4.164062 1.796875 -4.09375 L 0.375 -3.03125 L 1.6875 -1.265625 L 0.859375 -0.640625 L -3.46875 -6.421875 L -1.21875 -8.109375 C -0.46875 -8.671875 0.253906 -8.929688 0.953125 -8.890625 C 1.660156 -8.859375 2.25 -8.53125 2.71875 -7.90625 C 3.039062 -7.46875 3.207031 -7.003906 3.21875 -6.515625 C 3.238281 -6.035156 3.101562 -5.570312 2.8125 -5.125 L 5.625 -4.21875 Z M 1.265625 -4.796875 C 1.773438 -5.179688 2.082031 -5.585938 2.1875 -6.015625 C 2.300781 -6.441406 2.203125 -6.863281 1.890625 -7.28125 C 1.578125 -7.695312 1.195312 -7.914062 0.75 -7.9375 C 0.300781 -7.957031 -0.175781 -7.773438 -0.6875 -7.390625 L -2.109375 -6.328125 L -0.15625 -3.734375 Z M 1.265625 -4.796875 "/></g></g></g><g fill="#4d6e74" fill-opacity="1"><g transform="translate(148.609854, 124.369953)"><g><path d="M 5.09375 -3.859375 L 5.53125 -3.078125 L 0.9375 -0.53125 L -2.578125 -6.84375 L 1.875 -9.3125 L 2.3125 -8.53125 L -1.234375 -6.5625 L -0.15625 -4.625 L 3.015625 -6.375 L 3.4375 -5.609375 L 0.265625 -3.859375 L 1.40625 -1.8125 Z M 5.09375 -3.859375 "/></g></g></g><g fill="#4d6e74" fill-opacity="1"><g transform="translate(157.082716, 119.81406)"><g><path d="M 4.21875 -9.359375 L 6.8125 -2.625 L 6.015625 -2.3125 L 0.03125 -5.78125 L 1.96875 -0.75 L 1 -0.390625 L -1.59375 -7.125 L -0.796875 -7.421875 L 5.1875 -3.953125 L 3.25 -8.984375 Z M 4.21875 -9.359375 "/></g></g></g><g fill="#4d6e74" fill-opacity="1"><g transform="translate(167.526014, 116.075229)"><g><path d="M 1 -6.734375 L -1.40625 -6.171875 L -1.609375 -7.046875 L 4.203125 -8.421875 L 4.40625 -7.546875 L 1.984375 -6.96875 L 3.4375 -0.8125 L 2.453125 -0.578125 Z M 1 -6.734375 "/></g></g></g><g fill="#4d6e74" fill-opacity="1"><g transform="translate(176.215483, 114.246611)"><g><path d="M 0.984375 -1.484375 C 1.171875 -1.515625 1.335938 -1.472656 1.484375 -1.359375 C 1.640625 -1.242188 1.726562 -1.09375 1.75 -0.90625 C 1.769531 -0.800781 1.769531 -0.695312 1.75 -0.59375 C 1.738281 -0.5 1.71875 -0.347656 1.6875 -0.140625 L 1.390625 1.34375 L 0.75 1.4375 L 0.90625 -0.140625 C 0.78125 -0.160156 0.671875 -0.222656 0.578125 -0.328125 C 0.484375 -0.429688 0.425781 -0.5625 0.40625 -0.71875 C 0.382812 -0.90625 0.425781 -1.070312 0.53125 -1.21875 C 0.632812 -1.375 0.785156 -1.460938 0.984375 -1.484375 Z M 0.984375 -1.484375 "/></g></g></g><g fill="#4d6e74" fill-opacity="1"><g transform="translate(181.408646, 113.62956)"><g/></g></g><g fill="#4d6e74" fill-opacity="1"><g transform="translate(186.992887, 113.326494)"><g><path d="M 3.1875 0.203125 C 2.644531 0.179688 2.125 0.078125 1.625 -0.109375 C 1.125 -0.296875 0.734375 -0.53125 0.453125 -0.8125 L 0.859375 -1.59375 C 1.128906 -1.34375 1.472656 -1.128906 1.890625 -0.953125 C 2.316406 -0.785156 2.757812 -0.691406 3.21875 -0.671875 C 3.8125 -0.648438 4.257812 -0.734375 4.5625 -0.921875 C 4.863281 -1.117188 5.023438 -1.382812 5.046875 -1.71875 C 5.046875 -1.96875 4.96875 -2.171875 4.8125 -2.328125 C 4.664062 -2.492188 4.472656 -2.617188 4.234375 -2.703125 C 4.003906 -2.796875 3.671875 -2.90625 3.234375 -3.03125 C 2.703125 -3.175781 2.269531 -3.320312 1.9375 -3.46875 C 1.613281 -3.613281 1.335938 -3.828125 1.109375 -4.109375 C 0.878906 -4.390625 0.769531 -4.757812 0.78125 -5.21875 C 0.800781 -5.601562 0.914062 -5.945312 1.125 -6.25 C 1.34375 -6.550781 1.660156 -6.785156 2.078125 -6.953125 C 2.492188 -7.117188 3.007812 -7.191406 3.625 -7.171875 C 4.050781 -7.148438 4.46875 -7.078125 4.875 -6.953125 C 5.289062 -6.835938 5.644531 -6.664062 5.9375 -6.4375 L 5.5625 -5.640625 C 5.269531 -5.835938 4.953125 -5.992188 4.609375 -6.109375 C 4.265625 -6.222656 3.925781 -6.285156 3.59375 -6.296875 C 3.007812 -6.316406 2.566406 -6.222656 2.265625 -6.015625 C 1.972656 -5.816406 1.820312 -5.550781 1.8125 -5.21875 C 1.800781 -4.96875 1.875 -4.757812 2.03125 -4.59375 C 2.195312 -4.4375 2.398438 -4.3125 2.640625 -4.21875 C 2.878906 -4.125 3.207031 -4.023438 3.625 -3.921875 C 4.15625 -3.765625 4.582031 -3.613281 4.90625 -3.46875 C 5.226562 -3.320312 5.503906 -3.113281 5.734375 -2.84375 C 5.960938 -2.570312 6.070312 -2.207031 6.0625 -1.75 C 6.039062 -1.375 5.921875 -1.03125 5.703125 -0.71875 C 5.484375 -0.414062 5.160156 -0.179688 4.734375 -0.015625 C 4.316406 0.148438 3.800781 0.222656 3.1875 0.203125 Z M 3.1875 0.203125 "/></g></g></g><g fill="#4d6e74" fill-opacity="1"><g transform="translate(196.125864, 113.826137)"><g><path d="M 6.390625 0.15625 L 6.25 1.03125 L 1.0625 0.171875 L 2.25 -6.953125 L 7.28125 -6.109375 L 7.125 -5.234375 L 3.109375 -5.90625 L 2.75 -3.703125 L 6.328125 -3.109375 L 6.1875 -2.25 L 2.609375 -2.84375 L 2.21875 -0.53125 Z M 6.390625 0.15625 "/></g></g></g><g fill="#4d6e74" fill-opacity="1"><g transform="translate(205.616399, 115.606358)"><g><path d="M 4.21875 -5.34375 L 1.859375 -6.046875 L 2.109375 -6.90625 L 7.828125 -5.203125 L 7.578125 -4.34375 L 5.203125 -5.046875 L 3.390625 1.015625 L 2.40625 0.71875 Z M 4.21875 -5.34375 "/></g></g></g><g fill="#4d6e74" fill-opacity="1"><g transform="translate(214.052502, 118.353483)"><g/></g></g><g fill="#4d6e74" fill-opacity="1"><g transform="translate(219.20126, 120.463671)"><g><path d="M 3.546875 2.015625 C 2.691406 1.554688 2.160156 0.957031 1.953125 0.21875 C 1.742188 -0.519531 1.882812 -1.34375 2.375 -2.25 L 4.359375 -5.84375 L 5.265625 -5.34375 L 3.3125 -1.78125 C 2.5625 -0.425781 2.78125 0.570312 3.96875 1.21875 C 4.550781 1.539062 5.085938 1.617188 5.578125 1.453125 C 6.078125 1.285156 6.515625 0.859375 6.890625 0.171875 L 8.84375 -3.390625 L 9.71875 -2.90625 L 7.734375 0.6875 C 7.242188 1.59375 6.632812 2.15625 5.90625 2.375 C 5.175781 2.59375 4.390625 2.472656 3.546875 2.015625 Z M 3.546875 2.015625 "/></g></g></g><g fill="#4d6e74" fill-opacity="1"><g transform="translate(228.62223, 125.86283)"><g><path d="M 7.4375 -3.453125 C 8.1875 -2.890625 8.640625 -2.265625 8.796875 -1.578125 C 8.960938 -0.898438 8.8125 -0.25 8.34375 0.375 C 7.875 1 7.289062 1.328125 6.59375 1.359375 C 5.894531 1.398438 5.171875 1.140625 4.421875 0.578125 L 3 -0.484375 L 1.6875 1.265625 L 0.859375 0.640625 L 5.1875 -5.140625 Z M 4.9375 -0.140625 C 5.457031 0.242188 5.9375 0.425781 6.375 0.40625 C 6.820312 0.382812 7.203125 0.164062 7.515625 -0.25 C 7.828125 -0.664062 7.929688 -1.085938 7.828125 -1.515625 C 7.722656 -1.941406 7.410156 -2.347656 6.890625 -2.734375 L 5.484375 -3.796875 L 3.53125 -1.203125 Z M 4.9375 -0.140625 "/></g></g></g></svg>